#!OML:ASF E:\motion texture\Top Level 1\Subject 1\Session 1\male.ASF
:FULLY-SPECIFIED
:DEGREES
537
root -27.8808 17.8597 3.25517 172.578 -86.8622 -167.793
lowerback -0.00460828 -4.88276 -1.61539
upperback -2.25079 -6.55173 4.63546
thorax -1.59245 -3.25824 5.74835
lowerneck -10.7422 -8.63908 -10.0546
upperneck 6.06952 -10.8272 7.72756
head 4.52548 -5.18782 3.14863
rclavicle 3.91109e-014 -2.38542e-015
rhumerus 4.65944 15.3724 -73.3153
rradius 94.3825
rwrist 20.4052
rhand -27.8313 -23.2432
rfingers 7.12502
rthumb -1.22302 -413.219
lclavicle 3.91109e-014 -2.38542e-015
lhumerus 9.48483 -39.6122 94.2536
lradius 70.3946
lwrist 4.83569
lhand -12.6442 32.5786
lfingers 7.12502
lthumb 13.4362 62.1252
rfemur -31.4323 -4.61419 17.5936
rtibia 47.9184
rfoot -3.33039 -18.6098
rtoes 5.39597
lfemur -8.19914 -4.41403 -22.6378
ltibia 20.9652
lfoot -13.6584 3.27527
ltoes -0.689234
538
root -28.0261 17.8537 3.26215 174.42 -86.9694 -169.541
lowerback -0.0335354 -4.9854 -1.64704
upperback -2.30915 -6.69055 4.72687
thorax -1.60709 -3.3274 5.8608
lowerneck -10.7213 -8.58371 -9.98211
upperneck 5.95287 -10.7506 7.64863
head 4.47091 -5.15329 3.12384
rclavicle -6.2816e-014 1.90833e-014
rhumerus 5.80939 15.4111 -72.8563
rradius 94.3439
rwrist 20.4928
rhand -28.0593 -23.3115
rfingers 7.12502
rthumb -1.44322 -413.286
lclavicle -6.2816e-014 1.90833e-014
lhumerus 11.019 -39.6893 93.7644
lradius 70.4675
lwrist 5.43186
lhand -12.5964 32.7907
lfingers 7.12502
lthumb 13.4822 62.3343
rfemur -31.8867 -4.66287 17.4292
rtibia 46.3072
rfoot -3.76048 -18.4826
rtoes 5.21158
lfemur -7.685 -4.3853 -22.8779
ltibia 20.8369
lfoot -14.0023 3.28183
ltoes -0.925999
539
root -28.1719 17.8468 3.26908 176.506 -87.0629 -171.524
lowerback -0.065621 -5.08487 -1.67272
upperback -2.37101 -6.8251 4.81832
thorax -1.62419 -3.39443 5.96986
lowerneck -10.7005 -8.52846 -9.9104
upperneck 5.83647 -10.6744 7.57064
head 4.41672 -5.11887 3.09936
rclavicle -3.77691e-014 1.74931e-014
rhumerus 6.96591 15.4289 -72.398
rradius 94.2721
rwrist 20.5758
rhand -28.3044 -23.3867
rfingers 7.12502
rthumb -1.6799 -413.36
lclavicle -3.77691e-014 1.74931e-014
lhumerus 12.5239 -39.7252 93.2971
lradius 70.5221
lwrist 6.05927
lhand -12.547 33.0398
lfingers 7.12502
lthumb 13.5299 62.5803
rfemur -32.3124 -4.69495 17.2574
rtibia 44.6504
rfoot -4.14163 -18.3283
rtoes 4.95722
lfemur -7.18849 -4.34735 -23.118
ltibia 20.7248
lfoot -14.3409 3.28483
ltoes -1.18272
540
root -28.3182 17.8389 3.27588 178.847 -87.1407 -173.752
lowerback -0.099963 -5.18086 -1.69408
upperback -2.43703 -6.95498 4.91021
thorax -1.64479 -3.45908 6.07701
lowerneck -10.6806 -8.4735 -9.83966
upperneck 5.72189 -10.5987 7.49233
head 4.36344 -5.08465 3.07476
rclavicle -1.3244e-014 5.88403e-014
rhumerus 8.12372 15.4275 -71.9427
rradius 94.1687
rwrist 20.6576
rhand -28.5719 -23.4707
rfingers 7.12502
rthumb -1.93823 -413.442
lclavicle -1.3244e-014 5.88403e-014
lhumerus 13.9916 -39.7192 92.8599
lradius 70.5583
lwrist 6.71735
lhand -12.4885 33.322
lfingers 7.12502
lthumb 13.5863 62.8587
rfemur -32.7127 -4.70874 17.0783
rtibia 42.9645
rfoot -4.47676 -18.1532
rtoes 4.6393
lfemur -6.71164 -4.29906 -23.3578
ltibia 20.6319
lfoot -14.6741 3.28337
ltoes -1.45704
541
root -28.4651 17.8301 3.28254 181.438 -87.2014 -176.223
lowerback -0.136902 -5.27358 -1.712
upperback -2.50516 -7.08048 5.00202
thorax -1.66659 -3.52156 6.18203
lowerneck -10.6632 -8.41873 -9.76907
upperneck 5.60854 -10.5232 7.414
head 4.31112 -5.05049 3.04998
rclavicle 6.78353e-015 -2.22639e-014
rhumerus 9.28271 15.4081 -71.4936
rradius 94.0317
rwrist 20.7433
rhand -28.831 -23.5629
rfingers 7.12502
rthumb -2.18851 -413.531
lclavicle 6.78353e-015 -2.22639e-014
lhumerus 15.4208 -39.6748 92.4535
lradius 70.576
lwrist 7.40891
lhand -12.4249 33.64
lfingers 7.12502
lthumb 13.6475 63.1726
rfemur -33.0881 -4.70416 16.892
rtibia 41.2655
rfoot -4.76945 -17.9624
rtoes 4.27464
lfemur -6.25356 -4.23922 -23.5984
ltibia 20.5601
lfoot -15.0008 3.27583
ltoes -1.75456
542
root -28.6128 17.8204 3.28904 184.252 -87.2448 -178.91
lowerback -0.17604 -5.36353 -1.72612
upperback -2.57403 -7.2023 5.09345
thorax -1.68842 -3.58225 6.28436
lowerneck -10.6512 -8.36408 -9.69697
upperneck 5.49706 -10.4478 7.33465
head 4.26027 -5.01622 3.02437
rclavicle 4.74598e-014 -9.54166e-015
rhumerus 10.4403 15.3725 -71.0531
rradius 93.8618
rwrist 20.838
rhand -29.1129 -23.6593
rfingers 7.12502
rthumb -2.46072 -413.625
lclavicle 4.74598e-014 -9.54166e-015
lhumerus 16.8085 -39.5938 92.0803
lradius 70.5757
lwrist 8.13602
lhand -12.3615 33.9923
lfingers 7.12502
lthumb 13.7086 63.5208
rfemur -33.4385 -4.6837 16.6995
rtibia 39.5676
rfoot -5.02261 -17.7601
rtoes 3.86364
lfemur -5.8133 -4.16886 -23.8401
ltibia 20.5116
lfoot -15.3203 3.26097
ltoes -2.07919
543
root -28.7613 17.8098 3.29537 187.201 -87.2684 -181.726
lowerback -0.216753 -5.45026 -1.73463
upperback -2.64508 -7.31982 5.1855
thorax -1.71235 -3.64084 6.38421
lowerneck -10.6405 -8.30914 -9.62516
upperneck 5.38789 -10.3721 7.254
head 4.21038 -4.9818 2.9983
rclavicle -1.26228e-014 -1.43125e-014
rhumerus 11.591 15.324 -70.6225
rradius 93.6605
rwrist 20.9419
rhand -29.3981 -23.7593
rfingers 7.12502
rthumb -2.73616 -413.721
lclavicle -1.26228e-014 -1.43125e-014
lhumerus 18.1452 -39.4775 91.7486
lradius 70.5581
lwrist 8.89844
lhand -12.2941 34.3772
lfingers 7.12502
lthumb 13.7736 63.9013
rfemur -33.7663 -4.64576 16.5045
rtibia 37.8856
rfoot -5.23939 -17.5494
rtoes 3.41054
lfemur -5.39187 -4.08685 -24.0798
ltibia 20.4886
lfoot -15.6315 3.23773
ltoes -2.42113
544
root -28.9106 17.7983 3.3014 190.236 -87.275 -184.621
lowerback -0.261191 -5.5346 -1.73824
upperback -2.71577 -7.43419 5.27808
thorax -1.73435 -3.69801 6.48146
lowerneck -10.6346 -8.25441 -9.55264
upperneck 5.27931 -10.2965 7.17331
head 4.16157 -4.94734 2.97185
rclavicle -1.25234e-013 3.97569e-014
rhumerus 12.7349 15.2619 -70.2036
rradius 93.4291
rwrist 21.0583
rhand -29.7067 -23.865
rfingers 7.12502
rthumb -3.03425 -413.823
lclavicle -1.25234e-013 3.97569e-014
lhumerus 19.4336 -39.3303 91.4563
lradius 70.5233
lwrist 9.69845
lhand -12.2248 34.7922
lfingers 7.12502
lthumb 13.8403 64.3117
rfemur -34.0727 -4.59147 16.3079
rtibia 36.232
rfoot -5.42465 -17.3319
rtoes 2.91538
lfemur -4.99218 -3.99479 -24.3165
ltibia 20.4955
lfoot -15.934 3.20359
ltoes -2.79816
545
root -29.0609 17.7862 3.30715 193.266 -87.2635 -187.508
lowerback -0.304451 -5.61704 -1.73497
upperback -2.78813 -7.54604 5.37194
thorax -1.75942 -3.75398 6.5765
lowerneck -10.6317 -8.19853 -9.47903
upperneck 5.17404 -10.2195 7.09024
head 4.11409 -4.91213 2.94444
rclavicle 7.45443e-015 -6.36111e-015
rhumerus 13.8643 15.1927 -69.799
rradius 93.1692
rwrist 21.1903
rhand -30.0333 -23.9676
rfingers 7.12502
rthumb -3.34963 -413.921
lclavicle 7.45443e-015 -6.36111e-015
lhumerus 20.6617 -39.1529 91.2112
lradius 70.4741
lwrist 10.5389
lhand -12.1613 35.2384
lfingers 7.12502
lthumb 13.9016 64.7537
rfemur -34.3555 -4.517 16.1096
rtibia 34.6159
rfoot -5.57415 -17.1011
rtoes 2.38801
lfemur -4.61148 -3.89349 -24.5485
ltibia 20.5334
lfoot -16.2265 3.15955
ltoes -3.20628
546
root -29.2122 17.7735 3.31261 196.196 -87.2347 -190.292
lowerback -0.347899 -5.69743 -1.7229
upperback -2.86022 -7.65517 5.46782
thorax -1.78497 -3.80879 6.66877
lowerneck -10.6347 -8.1418 -9.40374
upperneck 5.07189 -10.1411 7.00424
head 4.0683 -4.87623 2.91567
rclavicle 3.8266e-015 -1.74931e-014
rhumerus 14.9791 15.1175 -69.409
rradius 92.8827
rwrist 21.3388
rhand -30.3681 -24.0724
rfingers 7.12502
rthumb -3.67292 -414.021
lclavicle 3.8266e-015 -1.74931e-014
lhumerus 21.8304 -38.9467 91.0148
lradius 70.4086
lwrist 11.4134
lhand -12.0959 35.7107
lfingers 7.12502
lthumb 13.9646 65.2217
rfemur -34.6174 -4.4187 15.9103
rtibia 33.0455
rfoot -5.67483 -16.8605
rtoes 1.86152
lfemur -4.25205 -3.78511 -24.7733
ltibia 20.6058
lfoot -16.5066 3.10524
ltoes -3.64947
547
root -29.3645 17.7602 3.3178 198.928 -87.1898 -192.874
lowerback -0.391984 -5.77516 -1.6984
upperback -2.93218 -7.7608 5.56608
thorax -1.81147 -3.86213 6.75661
lowerneck -10.6388 -8.08407 -9.32817
upperneck 4.97111 -10.0614 6.91628
head 4.02302 -4.83975 2.88626
rclavicle 1.26228e-014 5.24792e-014
rhumerus 16.0731 15.038 -69.0352
rradius 92.5716
rwrist 21.5071
rhand -30.7249 -24.1766
rfingers 7.12502
rthumb -4.0175 -414.118
lclavicle 1.26228e-014 5.24792e-014
lhumerus 22.9347 -38.7161 90.87
lradius 70.3287
lwrist 12.3224
lhand -12.0313 36.208
lfingers 7.12502
lthumb 14.0269 65.7147
rfemur -34.8602 -4.29687 15.7135
rtibia 31.5284
rfoot -5.72035 -16.6187
rtoes 1.30392
lfemur -3.91442 -3.67078 -24.988
ltibia 20.716
lfoot -16.773 3.04099
ltoes -4.125
548
root -29.518 17.7466 3.32273 201.402 -87.1309 -195.198
lowerback -0.436713 -5.85074 -1.66048
upperback -3.00277 -7.86365 5.66781
thorax -1.83758 -3.91445 6.84055
lowerneck -10.6477 -8.02518 -9.25187
upperneck 4.87367 -9.97999 6.8257
head 3.97939 -4.8024 2.85582
rclavicle 4.72114e-014 -1.59028e-014
rhumerus 17.1442 14.9572 -68.6775
rradius 92.2376
rwrist 21.698
rhand -31.1018 -24.2812
rfingers 7.12502
rthumb -4.38147 -414.216
lclavicle 4.72114e-014 -1.59028e-014
lhumerus 23.9722 -38.4625 90.7794
lradius 70.2353
lwrist 13.2647
lhand -11.9548 36.7224
lfingers 7.12502
lthumb 14.1006 66.224
rfemur -35.084 -4.15242 15.5207
rtibia 30.0738
rfoot -5.71613 -16.3729
rtoes 0.751099
lfemur -3.59862 -3.5529 -25.1917
ltibia 20.8662
lfoot -17.0219 2.96835
ltoes -4.64728
549
root -29.6727 17.7328 3.32744 203.556 -87.0596 -197.201
lowerback -0.481084 -5.92386 -1.60627
upperback -3.07194 -7.96331 5.77355
thorax -1.86421 -3.96561 6.91969
lowerneck -10.6603 -7.96498 -9.17452
upperneck 4.77986 -9.8967 6.73111
head 3.93717 -4.76421 2.82392
rclavicle 8.3589e-014 3.33958e-014
rhumerus 18.1884 14.8788 -68.3367
rradius 91.8831
rwrist 21.9123
rhand -31.4951 -24.387
rfingers 7.12502
rthumb -4.76118 -414.313
lclavicle 8.3589e-014 3.33958e-014
lhumerus 24.9396 -38.1888 90.7449
lradius 70.1295
lwrist 14.2394
lhand -11.8876 37.2607
lfingers 7.12502
lthumb 14.1653 66.7578
rfemur -35.2903 -3.98536 15.3359
rtibia 28.6921
rfoot -5.66082 -16.124
rtoes 0.229845
lfemur -3.30518 -3.43139 -25.3814
ltibia 21.0589
lfoot -17.2504 2.88566
ltoes -5.2094
